# xmcd
#
# Track frame offsets:
#	182
#	34607
#	44872
#	66812
#	81102
#	94010
#	123290
#	133807
#	146135
#	169470
#
# Disc length: 2523 seconds
#
# Revision: 1
# Processed by: cddbd v1.4PL0 Copyright (c) Steve Scherf et al.
# Submitted via: audiograbber 1.81.02
#
DISCID=9309d90a
DTITLE=Various Artist - Legendary Blues Classics (Disk 4)
DYEAR=1991
DGENRE=Blues
TTITLE0=Howlin' Wolf - Forty-Four
TTITLE1=Jimmy Reed - Ain't That Lovin' You Baby
TTITLE2=Bobby Marchan - There Is Something On Your Mind
TTITLE3=Lightnin' Slim - Things I used To Do
TTITLE4=Ray Charles - Lonely Boy
TTITLE5=Muddy Waters - Howlin' Wolf
TTITLE6=John Lee Hooker - Big Legs, Tight Skirt
TTITLE7=James Cotton - Off The Wall
TTITLE8=Percy Mayfield - Please Send Me Someone To Love
TTITLE9=B.B. King - How Blue Can You Get
EXTD=
EXTT0=
EXTT1=
EXTT2=
EXTT3=
EXTT4=
EXTT5=
EXTT6=
EXTT7=
EXTT8=
EXTT9=
PLAYORDER=
